PathFileType	4	(X/Y/Z)	RBDS021static.trc
DataRate	CameraRate	NumFrames	NumMarkers	Units	OrigDataRate	OrigDataStartFrame	OrigNumFrames
150.000000	150.000000	4	48	mm	150.000000	93	150
Frame#	Time	L.Ankle			L.Ankle.Medial			L.ASIS			L.GTR			L.Heel.Bottom			L.Heel.Lateral			L.Heel.Top			L.HF			L.Iliac.Crest			L.Knee			L.Knee.Medial			L.MT1			L.MT2			L.MT5			L.PSIS			L.Shank.Bottom.Lateral			L.Shank.Bottom.Medial			L.Shank.Top.Lateral			L.Shank.Top.Medial			L.Thigh.Bottom.Lateral			L.Thigh.Bottom.Medial			L.Thigh.Top.Lateral			L.Thigh.Top.Medial			L.TT			R.Ankle			R.Ankle.Medial			R.ASIS			R.GTR			R.Heel.Bottom			R.Heel.Lateral			R.Heel.Top			R.HF			R.Iliac.Crest			R.Knee			R.Knee.Medial			R.MT1			R.MT2			R.MT5			R.PSIS			R.Shank.Bottom.Lateral			R.Shank.Bottom.Medial			R.Shank.Top.Lateral			R.Shank.Top.Medial			R.Thigh.Bottom.Lateral			R.Thigh.Bottom.Medial			R.Thigh.Top.Lateral			R.Thigh.Top.Medial			R.TT			
		X1	Y1	Z1	X2	Y2	Z2	X3	Y3	Z3	X4	Y4	Z4	X5	Y5	Z5	X6	Y6	Z6	X7	Y7	Z7	X8	Y8	Z8	X9	Y9	Z9	X10	Y10	Z10	X11	Y11	Z11	X12	Y12	Z12	X13	Y13	Z13	X14	Y14	Z14	X15	Y15	Z15	X16	Y16	Z16	X17	Y17	Z17	X18	Y18	Z18	X19	Y19	Z19	X20	Y20	Z20	X21	Y21	Z21	X22	Y22	Z22	X23	Y23	Z23	X24	Y24	Z24	X25	Y25	Z25	X26	Y26	Z26	X27	Y27	Z27	X28	Y28	Z28	X29	Y29	Z29	X30	Y30	Z30	X31	Y31	Z31	X32	Y32	Z32	X33	Y33	Z33	X34	Y34	Z34	X35	Y35	Z35	X36	Y36	Z36	X37	Y37	Z37	X38	Y38	Z38	X39	Y39	Z39	X40	Y40	Z40	X41	Y41	Z41	X42	Y42	Z42	X43	Y43	Z43	X44	Y44	Z44	X45	Y45	Z45	X46	Y46	Z46	X47	Y47	Z47	X48	Y48	Z48	

94	0.62	713.2713012695313	110.8776931762695	1037.829467773438	729.7554931640625	122.4052963256836	1118.943969726563	864.4511108398438	1002.43994140625	1113.355224609375	788.5424194335938	920.4059448242188	1038.991088867188	635.94140625	40.07468795776367	1086.055053710938	665.4883422851563	61.42349243164063	1041.352294921875	645.6339721679688	86.78639984130859	1086.039306640625	733.1787719726563	455.2852172851563	1020.409912109375	777.188720703125	1061.534423828125	1063.11279296875	753.2584838867188	533.1088256835938	1028.288940429688	725.8064575195313	503.9972534179688	1155.790405273438	851.7514038085938	57.26401519775391	1126.767333984375	863.9078369140625	62.58724975585938	1082.426635742188	821.48193359375	47.76076126098633	1012.868957519531	680.6873779296875	1023.011291503906	1190.764404296875	710.6963500976563	183.2414703369141	1028.86181640625	668.5806884765625	186.6424865722656	1064.812744140625	704.4375610351563	262.4924011230469	1015.245971679688	663.3146362304688	266.2106628417969	1049.77490234375	761.5624389648438	657.56201171875	1022.107299804688	699.1530151367188	668.4315795898438	1055.60986328125	773.8525390625	766.8074340820313	1015.043579101563	714.281982421875	777.4571533203125	1047.504028320313	788.320556640625	437.9297485351563	1074.361938476563	707.1664428710938	103.1912384033203	1422.41943359375	731.7207641601563	124.3934555053711	1341.387939453125	866.7728271484375	1004.337036132813	1337.848510742188	794.635009765625	919.1569213867188	1410.105712890625	635.0757446289063	40.53001022338867	1372.290893554688	662.7710571289063	59.49378967285156	1417.452392578125	643.6287231445313	85.03485870361328	1372.909423828125	739.2694091796875	461.5001831054688	1432.342407226563	796.8106689453125	1059.570678710938	1385.0791015625	757.0834350585938	534.6722412109375	1419.662963867188	748.870849609375	507.2759094238281	1287.274780273438	845.0753784179688	58.05723571777344	1333.607666015625	860.1923828125	68.17874145507813	1384.925048828125	823.0767211914063	50.48394012451172	1446.078002929688	680.261474609375	1014.210876464844	1267.643798828125	694.489013671875	186.6710968017578	1426.635986328125	664.5637817382813	193.9332580566406	1385.688232421875	695.1572265625	270.7728881835938	1439.5166015625	660.7667846679688	273.5968933105469	1398.523803710938	765.8452758789063	662.7093505859375	1426.47705078125	701.9175415039063	665.6654052734375	1389.009643554688	766.9992065429688	772.3287353515625	1426.044677734375	708.100830078125	774.9057006835938	1388.203369140625	796.367919921875	435.1594848632813	1375.029052734375	
95	0.6266666666666667	713.265869140625	110.8818893432617	1037.82568359375	729.761962890625	122.3968887329102	1118.943969726563	864.4368896484375	1002.433715820313	1113.360473632813	788.505126953125	920.411865234375	1038.997802734375	635.9434814453125	40.06414413452148	1086.0498046875	665.4921264648438	61.41972732543945	1041.347534179688	645.6314086914063	86.78311157226563	1086.048706054688	733.1590576171875	455.2904052734375	1020.425964355469	777.16162109375	1061.5234375	1063.114501953125	753.24658203125	533.109619140625	1028.295654296875	725.7974243164063	503.98974609375	1155.801025390625	851.7372436523438	57.25814056396484	1126.766967773438	863.9075927734375	62.5792350769043	1082.43994140625	821.49560546875	47.74811935424805	1012.869201660156	680.6866455078125	1023.021301269531	1190.789794921875	710.7015991210938	183.2330627441406	1028.88134765625	668.5787963867188	186.6382598876953	1064.819091796875	704.42919921875	262.4942321777344	1015.251098632813	663.3070678710938	266.2103576660156	1049.783447265625	761.5361328125	657.5745849609375	1022.116638183594	699.118896484375	668.4375	1055.620239257813	773.8273315429688	766.8018188476563	1015.055480957031	714.256591796875	777.4583740234375	1047.513061523438	788.3101196289063	437.9341735839844	1074.363525390625	707.1612548828125	103.1801376342773	1422.416137695313	731.7179565429688	124.3996047973633	1341.392333984375	866.7861938476563	1004.331298828125	1337.849731445313	794.65771484375	919.1486206054688	1410.113037109375	635.0698852539063	40.52536392211914	1372.294921875	662.7713012695313	59.4959602355957	1417.459350585938	643.6266479492188	85.03196716308594	1372.916015625	739.2611694335938	461.4969177246094	1432.346801757813	796.8375854492188	1059.56982421875	1385.087036132813	757.0638427734375	534.6726684570313	1419.66552734375	748.8479614257813	507.2733459472656	1287.280395507813	845.0602416992188	58.080078125	1333.5869140625	860.1854858398438	68.17430114746094	1384.924560546875	823.07275390625	50.4744758605957	1446.075439453125	680.265869140625	1014.21533203125	1267.674438476563	694.4855346679688	186.6713714599609	1426.643432617188	664.556396484375	193.9352416992188	1385.681640625	695.14892578125	270.7792663574219	1439.535522460938	660.7586059570313	273.60107421875	1398.526489257813	765.8455810546875	662.7130126953125	1426.48828125	701.9116821289063	665.6727294921875	1389.029907226563	767.0053100585938	772.3175048828125	1426.049560546875	708.111083984375	774.8933715820313	1388.219482421875	796.3479614257813	435.1654357910156	1375.035278320313	
96	0.6333333333333334	713.2810668945313	110.8739852905273	1037.822509765625	729.758544921875	122.4171524047852	1118.967041015625	864.4241333007813	1002.426574707031	1113.352783203125	788.4827270507813	920.410888671875	1039.01318359375	635.9544067382813	40.064453125	1086.04150390625	665.4927368164063	61.41804122924805	1041.343872070313	645.6371459960938	86.77960968017578	1086.036865234375	733.1605224609375	455.291748046875	1020.426208496094	777.1417236328125	1061.521728515625	1063.118408203125	753.2388916015625	533.1085815429688	1028.304321289063	725.7911376953125	503.9958190917969	1155.81494140625	851.7318115234375	57.26340484619141	1126.763549804688	863.9093627929688	62.57898712158203	1082.437866210938	821.4864501953125	47.74777603149414	1012.870483398438	680.6720581054688	1023.024047851563	1190.816528320313	710.6918334960938	183.2415466308594	1028.869262695313	668.5795288085938	186.6459045410156	1064.825805664063	704.4190673828125	262.4991455078125	1015.255737304688	663.30908203125	266.2083435058594	1049.794921875	761.5265502929688	657.573974609375	1022.125915527344	699.1151733398438	668.4359130859375	1055.630004882813	773.8125610351563	766.810546875	1015.056701660156	714.243408203125	777.4547729492188	1047.521240234375	788.3038940429688	437.9345397949219	1074.374877929688	707.1544799804688	103.17626953125	1422.421020507813	731.71142578125	124.3983612060547	1341.38623046875	866.8081665039063	1004.317810058594	1337.853149414063	794.681396484375	919.1419067382813	1410.118286132813	635.0687866210938	40.52510833740234	1372.292724609375	662.7718505859375	59.49726486206055	1417.456176757813	643.6239624023438	85.03617095947266	1372.920166015625	739.2440185546875	461.4972229003906	1432.348388671875	796.8612060546875	1059.558227539063	1385.086669921875	757.0534057617188	534.6738891601563	1419.678100585938	748.8153686523438	507.2863464355469	1287.26416015625	845.0526123046875	58.09112167358398	1333.587158203125	860.1766967773438	68.17351531982422	1384.936889648438	823.0723266601563	50.47393798828125	1446.083862304688	680.2742919921875	1014.213012695313	1267.706176757813	694.479736328125	186.6653747558594	1426.642700195313	664.5396728515625	193.9302825927734	1385.691650390625	695.1371459960938	270.7714233398438	1439.532470703125	660.7467651367188	273.5904846191406	1398.528442382813	765.8273315429688	662.7291259765625	1426.465454101563	701.9064331054688	665.6868286132813	1389.051879882813	767.0106201171875	772.322021484375	1426.051635742188	708.1077270507813	774.9094848632813	1388.224975585938	796.334716796875	435.158447265625	1375.02880859375	
97	0.64	713.26953125	110.8741226196289	1037.825439453125	729.7634887695313	122.4072494506836	1118.949096679688	864.4223022460938	1002.419311523438	1113.351440429688	788.4645385742188	920.4209594726563	1039.035522460938	635.9534301757813	40.06966400146484	1086.040771484375	665.4909057617188	61.41912460327148	1041.353393554688	645.6393432617188	86.78817749023438	1086.039306640625	733.157470703125	455.2890625	1020.421691894531	777.1121826171875	1061.518188476563	1063.126220703125	753.2333984375	533.106689453125	1028.297729492188	725.7957763671875	503.9935913085938	1155.8193359375	851.7420654296875	57.26900100708008	1126.77587890625	863.9041748046875	62.57489013671875	1082.443603515625	821.4854736328125	47.74198913574219	1012.870239257813	680.6669311523438	1023.0283203125	1190.840087890625	710.6853637695313	183.2294311523438	1028.87158203125	668.578369140625	186.6501922607422	1064.821044921875	704.4193725585938	262.5010375976563	1015.258605957031	663.3076782226563	266.2154846191406	1049.782958984375	761.5140991210938	657.5785522460938	1022.121765136719	699.103759765625	668.4302978515625	1055.642822265625	773.7985229492188	766.82177734375	1015.076721191406	714.233154296875	777.447021484375	1047.543090820313	788.30517578125	437.9345397949219	1074.374145507813	707.1541137695313	103.1780014038086	1422.428588867188	731.7130126953125	124.3970336914063	1341.3837890625	866.8192749023438	1004.307556152344	1337.846069335938	794.7008056640625	919.1347045898438	1410.12744140625	635.0712890625	40.51806259155273	1372.285766601563	662.7689208984375	59.49263763427734	1417.45263671875	643.6236572265625	85.03282928466797	1372.910278320313	739.2335205078125	461.4976806640625	1432.353515625	796.8748779296875	1059.56103515625	1385.091918945313	757.0349731445313	534.6718139648438	1419.684448242188	748.768310546875	507.2872924804688	1287.286499023438	845.0545043945313	58.08859252929688	1333.588012695313	860.18603515625	68.16782379150391	1384.929565429688	823.0723266601563	50.48053741455078	1446.086547851563	680.2839965820313	1014.210998535156	1267.716064453125	694.482421875	186.6565551757813	1426.64892578125	664.5343017578125	193.9225616455078	1385.687133789063	695.1351928710938	270.7655639648438	1439.547607421875	660.740478515625	273.5847473144531	1398.546142578125	765.826171875	662.7313232421875	1426.458862304688	701.8959350585938	665.689697265625	1389.066284179688	767.0216674804688	772.31494140625	1426.060791015625	708.1094360351563	774.9159545898438	1388.249877929688	796.3276977539063	435.1740417480469	1375.04443359375	
